<svg width="32" height="32" version="1.1" viewBox="0 0 24 24" xmlns="http://www.w3.org/2000/svg">
 <defs>
  <linearGradient id="a" x1="11.981" x2="11.981" y1="2.9989" y2="20.983" gradientTransform="matrix(.79098 0 0 .79098 2.5233 3.8081)" gradientUnits="userSpaceOnUse">
   <stop stop-color="#fffb00ff" offset="0"/>
   <stop stop-color="#d6c800ff" offset="1"/>
  </linearGradient>
 </defs>
 <g transform="translate(.043256 .87176)">
  <path d="m12 4.1827c-4.9474 0-9.0633 3.9889-9.0633 9.1096 0.00435 2.1134 0.30891 3.3327 0.91799 4.9376l2.1163-1.2086c-0.62337-1.2696-1.0465-2.1699-1.0487-3.7334-3.665e-4 -3.7847 3.1204-7.1064 7.0777-7.1067 3.9578-3.329e-4 7.0834 3.3449 7.083 7.1067 0 1.484-0.41139 2.7065-1.188 3.9298l2.1619 1.1331c0.58442-1.6102 0.95907-2.6582 0.95907-5.0116-1.29e-4 -4.9694-4.0689-9.1564-9.0158-9.1564z" stroke-width=".87386"/>
  <ellipse cx="12" cy="13.293" rx="7.0809" ry="7.1125" fill="url(#a)" stroke-width=".83149"/>
  <path d="m12.858 8.9502c-6.3424 0.54703-8.6642 4.8543-8.898 9.2225-0.82155-1.6182-1.1589-4.4074-0.96111-6.0562 0.5991-4.9951 5.1663-8.4649 10.113-7.8716 3.4654 0.41563 7.9133 3.4214 7.9133 9.0425-0.69705-1.298-2.7222-4.8064-8.167-4.3368z" fill="#666" fill-opacity=".29307" stroke-width=".71916"/>
  <path d="m11.957 1.8511c-5.7225-3.955e-4 -10.362 4.6383-10.362 10.361 0.00224 2.2544 0.72379 4.375 2.0371 6.1388l0.32771-0.17811c-0.72243-1.3889-1.017-2.9448-1.0212-4.5867 3.749e-4 -5.1134 3.8584-9.2582 8.9718-9.2578 5.1128 3.752e-4 9.0755 4.145 9.0759 9.2578-7.01e-4 1.6553-0.39508 3.2513-1.1553 4.6465l0.39465 0.20904c1.3359-1.7696 2.0893-3.9487 2.0925-6.2296-4.14e-4 -5.722-4.6389-10.36-10.361-10.361z" fill="#bdbdbd" stroke-width=".75"/>
 </g>
</svg>
