<svg width="29" height="28" viewBox="0 0 29 28" fill="none" xmlns="http://www.w3.org/2000/svg">
<path d="M9.293 19.6823C10.5837 22.0834 18.5508 22.6682 21.2701 19.8842C18.7248 21.3895 10.6056 21.1313 9.293 19.6823Z" fill="black" stroke="black" stroke-width="0.67287" stroke-linejoin="round"/>
<path d="M18.5341 9.91303C16.7355 11.0909 16.5392 14.9516 18.5341 16.3258C20.3999 14.9516 20.3345 11.1563 18.5341 9.91303Z" fill="black" stroke="black" stroke-width="0.654283" stroke-linejoin="round"/>
<path d="M12.0006 9.91303C10.202 11.0909 10.0057 14.9516 12.0006 16.3258C13.8664 14.9516 13.801 11.1563 12.0006 9.91303Z" fill="black" stroke="black" stroke-width="0.654283" stroke-linejoin="round"/>
<path fill-rule="evenodd" clip-rule="evenodd" d="M18.0821 4.90752C18.119 5.0554 18.0318 5.18199 17.7796 5.27046C14.3922 6.84321 10.8372 8.40203 5.93752 9.1884C5.67523 9.23971 5.45342 8.75722 5.40211 8.49493C5.3508 8.23264 5.52184 7.97841 5.78413 7.92711C10.8977 7.19222 13.7268 6.2383 17.5376 4.79818C17.7898 4.70971 18.0216 4.66555 18.0821 4.90752ZM18.8446 4.91917C18.9417 4.78998 19.1387 4.8074 19.3524 4.96801C21.1137 6.29222 23.1217 7.36253 24.8599 8.27612C25.0965 8.40047 25.1875 8.69305 25.0631 8.92963C24.9388 9.1662 24.5689 9.31275 24.3323 9.1884C22.3966 8.22056 20.4412 6.78271 19.0499 5.39144C18.8446 5.18611 18.7475 5.04835 18.8446 4.91917Z" fill="black"/>
<circle cx="4.51873" cy="10.119" r="2.10977" stroke="black" stroke-width="1.35668"/>
<circle cx="3.8949" cy="14.8122" r="2.32166" stroke="black" stroke-width="1.35668"/>
<circle cx="26.2241" cy="10.1323" r="1.91542" stroke="black" stroke-width="1.35668"/>
<circle cx="4.65787" cy="19.1558" r="1.97063" stroke="black" stroke-width="1.35668"/>
<circle cx="26.0062" cy="19.0758" r="2.07166" stroke="black" stroke-width="1.35668"/>
<path d="M4.52749 4.95834L5.27263 5.04433L5.27376 5.03297L4.52749 4.95834ZM25.8085 5.13981L25.0699 5.27015L25.0699 5.27015L25.8085 5.13981ZM26.8627 21.5129C26.9384 21.1056 26.6696 20.7141 26.2624 20.6384C25.8551 20.5627 25.4636 20.8315 25.3879 21.2387L26.8627 21.5129ZM5.19411 21.2416C5.12002 20.8341 4.72958 20.5638 4.32205 20.6379C3.91451 20.712 3.64421 21.1024 3.71831 21.5099L5.19411 21.2416ZM4.8997 8.27511L5.27254 5.04432L3.78243 4.87236L3.40959 8.10315L4.8997 8.27511ZM5.27376 5.03297C5.34805 4.29007 5.65146 3.67139 6.14321 3.23683C6.63401 2.80309 7.36999 2.50235 8.39887 2.50235V1.00235C7.06862 1.00235 5.95964 1.39725 5.14991 2.11283C4.34111 2.82758 3.88839 3.8119 3.78121 4.88371L5.27376 5.03297ZM8.39887 2.50235H22.3606V1.00235H8.39887V2.50235ZM22.3606 2.50235C23.2095 2.50235 23.7876 2.80749 24.2006 3.26693C24.6336 3.74867 24.9248 4.44777 25.0699 5.27015L26.5471 5.00947C26.372 4.01714 25.9978 3.02251 25.3162 2.26419C24.6145 1.48359 23.6288 1.00235 22.3606 1.00235V2.50235ZM25.0699 5.27015C25.2301 6.17768 25.3608 6.91679 25.4516 7.42903C25.4969 7.68515 25.5323 7.88456 25.5563 8.01995C25.5683 8.08765 25.5775 8.13934 25.5837 8.17412C25.5868 8.1915 25.5891 8.20466 25.5907 8.21348C25.5915 8.21789 25.5921 8.22121 25.5924 8.22343C25.5926 8.22454 25.5928 8.22538 25.5929 8.22593C25.5929 8.22621 25.593 8.22642 25.593 8.22656C25.593 8.22664 25.593 8.22669 25.593 8.22672C25.593 8.22674 25.593 8.22676 25.593 8.22676C25.593 8.22677 25.593 8.22678 26.3315 8.09558C27.0699 7.96438 27.0699 7.96438 27.0699 7.96437C27.0699 7.96436 27.0699 7.96435 27.0699 7.96433C27.0699 7.9643 27.0699 7.96425 27.0699 7.96418C27.0699 7.96404 27.0698 7.96384 27.0698 7.96356C27.0697 7.96301 27.0695 7.96218 27.0693 7.96108C27.0689 7.95887 27.0683 7.95556 27.0676 7.95117C27.066 7.94238 27.0637 7.92925 27.0606 7.9119C27.0544 7.87718 27.0453 7.82555 27.0333 7.75792C27.0093 7.62265 26.9739 7.42337 26.9286 7.16739C26.8379 6.65543 26.7072 5.91665 26.5471 5.00947L25.0699 5.27015ZM25.3879 21.2387C25.215 22.1691 25.0874 23.1333 24.6885 23.9057C24.4997 24.2713 24.2666 24.5545 23.9689 24.7493C23.6756 24.9414 23.2701 25.0802 22.6799 25.0802V26.5802C23.5198 26.5802 24.2199 26.3779 24.7906 26.0043C25.3569 25.6335 25.7463 25.1265 26.0212 24.594C26.5499 23.5704 26.715 22.3074 26.8627 21.5129L25.3879 21.2387ZM22.6799 25.0802H7.99236V26.5802H22.6799V25.0802ZM7.99236 25.0802C7.35478 25.0802 6.91506 24.9213 6.59663 24.7029C6.27205 24.4803 6.02413 24.1615 5.83051 23.7698C5.42322 22.9457 5.33031 21.9907 5.19411 21.2416L3.71831 21.5099C3.82408 22.0917 3.95674 23.3639 4.48578 24.4344C4.76033 24.9899 5.15826 25.5352 5.74813 25.9398C6.34414 26.3487 7.08744 26.5802 7.99236 26.5802V25.0802Z" fill="black"/>
<circle cx="26.2241" cy="14.6312" r="2.09756" stroke="black" stroke-width="1.35668"/>
</svg>
