<?xml version="1.0" standalone="no"?>
<!DOCTYPE svg PUBLIC "-//W3C//DTD SVG 20010904//EN"
 "http://www.w3.org/TR/2001/REC-SVG-20010904/DTD/svg10.dtd">
<svg version="1.0" xmlns="http://www.w3.org/2000/svg"
 width="540.000000pt" height="558.000000pt" viewBox="0 0 540.000000 558.000000"
 preserveAspectRatio="xMidYMid meet">

<g transform="translate(0.000000,558.000000) scale(0.100000,-0.100000)"
fill="#000000" stroke="none">
<path d="M1055 5520 c-252 -9 -289 -14 -377 -59 -153 -77 -185 -178 -208 -656
-5 -126 -13 -253 -16 -282 l-5 -51 -91 -54 c-120 -70 -205 -153 -249 -243 -29
-60 -34 -79 -33 -145 0 -65 5 -86 38 -158 22 -48 40 -106 43 -138 3 -30 0
-166 -7 -304 -6 -137 -9 -272 -5 -300 5 -38 19 -66 55 -116 l48 -66 -69 -88
c-38 -48 -76 -106 -84 -130 -18 -50 -20 -216 -4 -274 15 -54 79 -119 175 -178
124 -76 134 -89 151 -205 8 -54 28 -167 44 -251 40 -214 44 -270 25 -372 -9
-47 -21 -167 -26 -267 -10 -191 -17 -244 -75 -623 -20 -129 -37 -275 -38 -325
l-2 -89 40 -7 c241 -43 4105 -45 4583 -2 107 9 111 17 82 176 -12 67 -33 183
-46 257 -47 264 -96 627 -101 755 -4 101 -9 136 -22 155 -36 53 -37 50 43 319
20 67 45 172 56 232 11 60 24 118 29 128 6 10 34 32 63 49 57 31 191 165 232
230 58 92 54 249 -9 377 -40 81 -42 107 -16 230 44 202 46 338 7 412 -8 16
-39 61 -70 100 -83 106 -85 115 -33 166 103 101 152 209 145 322 -9 132 -64
209 -249 346 -66 49 -109 88 -112 102 -13 53 -28 186 -42 377 -17 226 -36 358
-61 420 -18 45 -126 150 -185 180 -52 27 -136 39 -336 50 -197 11 -2970 10
-3288 0z m3408 -119 c73 -14 173 -60 210 -95 42 -39 65 -101 87 -233 39 -235
48 -398 29 -510 -13 -72 -39 -117 -89 -151 -31 -21 -42 -23 -100 -17 -130 12
-301 106 -627 343 -227 165 -307 217 -322 207 -25 -15 -7 -49 61 -121 145
-153 408 -342 638 -458 l130 -67 0 -173 c0 -211 9 -260 70 -372 l47 -89 -48
-100 c-82 -168 -97 -274 -59 -398 24 -78 92 -183 138 -213 37 -25 121 -42 267
-53 113 -8 144 -5 152 16 11 27 -33 55 -128 80 -220 58 -358 172 -359 297 0
64 122 289 168 308 10 4 55 7 103 7 77 1 89 -2 130 -27 24 -16 84 -71 132
-123 l88 -94 -6 -170 c-28 -763 -53 -842 -278 -880 -24 -4 -59 0 -94 10 -104
31 -189 144 -273 368 -43 114 -62 130 -85 73 -31 -73 -11 -198 48 -310 22 -43
75 -106 176 -208 l144 -148 -31 -122 c-61 -237 -150 -370 -280 -418 -94 -35
-318 -41 -2013 -47 l-1596 -6 -78 89 c-137 157 -216 296 -255 448 -31 124 -27
170 19 188 26 10 154 30 268 43 l62 7 5 36 c15 97 28 314 22 355 -7 49 -34 81
-59 71 -21 -8 -27 -25 -42 -131 -17 -118 -38 -161 -97 -191 -53 -27 -189 -51
-312 -55 l-88 -2 -39 43 c-21 24 -48 63 -59 88 -89 183 19 289 454 452 l180
67 24 90 c20 72 25 116 26 215 1 172 -10 196 -143 298 l-25 19 28 44 c15 24
41 67 58 94 46 73 94 198 114 295 9 47 20 89 24 93 4 5 54 19 111 32 57 12
169 37 249 54 171 38 242 55 535 126 121 29 279 68 350 85 194 47 341 89 393
112 26 11 70 26 99 34 59 15 361 126 473 173 86 35 150 83 150 112 0 34 -50
23 -292 -65 -304 -110 -461 -158 -818 -255 -505 -137 -760 -199 -1230 -298
l-75 -16 -167 97 -168 98 5 171 c9 293 13 349 40 487 30 153 48 189 111 226
94 55 162 66 489 74 502 12 3160 5 3228 -9z m-3816 -1116 c70 -36 141 -80 157
-97 28 -31 28 -33 23 -122 -6 -111 -38 -203 -87 -257 -62 -66 -192 -98 -263
-64 -52 24 -196 153 -228 203 -16 25 -29 59 -29 74 0 62 69 154 199 265 41 35
80 63 87 63 7 0 70 -29 141 -65z m4316 9 c94 -32 190 -154 204 -262 6 -46 -43
-209 -80 -264 -31 -46 -100 -69 -197 -65 -90 4 -147 28 -221 95 -66 59 -80 90
-86 186 -10 149 23 233 104 271 118 56 194 67 276 39z m-4629 -566 c9 -13 53
-43 98 -68 61 -33 83 -51 83 -65 0 -17 -9 -21 -57 -27 -31 -4 -84 -19 -119
-33 -34 -14 -65 -25 -67 -25 -3 0 -3 44 0 98 6 129 28 170 62 120z m465 -245
c18 -35 30 -153 21 -208 -12 -72 -39 -123 -94 -173 -66 -61 -124 -84 -227 -90
-85 -4 -86 -4 -122 28 -100 88 -127 289 -51 380 43 50 162 75 376 79 74 1 89
-2 97 -16z m2196 -2135 c3 -13 16 -77 30 -143 47 -219 152 -554 257 -818 40
-100 48 -131 39 -140 -18 -18 -1261 -23 -1261 -5 1 33 41 163 83 263 107 260
162 465 177 665 5 74 10 138 10 142 0 4 12 15 27 25 27 18 155 26 520 31 109
2 113 1 118 -20z"/>
<path d="M3191 4082 c-68 -34 -147 -185 -193 -369 -17 -67 -22 -117 -22 -208
0 -109 3 -129 32 -214 47 -136 116 -264 165 -306 72 -62 114 -48 235 79 135
143 161 220 161 476 1 178 -10 229 -66 322 -65 108 -132 181 -195 212 -61 31
-72 31 -117 8z"/>
<path d="M1980 4073 c-45 -22 -140 -116 -179 -178 -17 -26 -41 -78 -53 -114
-20 -58 -23 -84 -22 -226 0 -141 3 -172 27 -264 49 -188 149 -341 221 -341 73
0 216 125 271 237 101 207 58 656 -81 838 -49 65 -114 81 -184 48z"/>
<path d="M1591 2401 c-21 -13 -6 -55 36 -102 78 -86 313 -221 503 -287 173
-60 224 -67 565 -67 212 0 332 4 380 13 148 27 337 96 508 184 79 41 160 106
198 159 52 74 -47 77 -316 10 -88 -22 -194 -44 -235 -50 -114 -17 -698 -25
-900 -12 -186 11 -198 14 -543 115 -169 49 -175 50 -196 37z"/>
</g>
</svg>
