<svg width="32" height="32" version="1.1" viewBox="0 0 24 24" xmlns="http://www.w3.org/2000/svg">
 <defs>
  <linearGradient id="a" x1="11.981" x2="11.981" y1="2.9989" y2="20.983" gradientTransform="matrix(.79098 0 0 .79098 2.5738 3.0967)" gradientUnits="userSpaceOnUse">
   <stop stop-color="#ffffffff" offset="0"/>
   <stop stop-color="#ddddddff" offset="1"/>
  </linearGradient>
 </defs>
 <g transform="translate(.043256 .87176)">
  <g transform="translate(-.047996 -.45822)">
   <path d="m12.05 3.4713c-4.9474 0-9.0633 3.9889-9.0633 9.1096 0.00435 2.1134-0.056762 2.1831 0.55232 3.788l2.5176 1.18e-4c-0.62337-1.2696-1.0821-2.229-1.0843-3.7925-3.665e-4 -3.7847 3.1204-7.1064 7.0777-7.1067 3.9578-3.32e-4 7.0834 3.3449 7.083 7.1067 0 1.484-0.31306 2.5692-1.0897 3.7925l2.3659-1.18e-4c0.58442-1.6102 0.65678-1.3877 0.65678-3.7411-1.29e-4 -4.9694-4.0689-9.1564-9.0158-9.1564z" fill="#fff" fill-opacity=".29307" stroke-width=".87386"/>
   <ellipse cx="12.05" cy="12.581" rx="7.0809" ry="7.1125" fill="url(#a)" stroke-width=".83149"/>
   <path d="m2.9084 16.65c-1.1552-2.0951-0.73891-3.5608-0.52645-5.3318 0.64352-5.3655 5.5494-9.0926 10.863-8.4553 3.7223 0.44645 7.8547 0.26907 7.8547 6.307-0.62236-0.45304-3.4705-1.7659-6.2172-1.7659-7.7029 0-11.895 5.7945-11.974 9.246z" fill="#666" fill-opacity=".21439" stroke-width=".77248"/>
   <path d="m12.006 0.47905c-6.0529-4.18e-4 -10.96 4.9061-10.961 10.959 0.00194 1.9445 0.50976 3.7948 1.4504 5.4232l0.55282-0.27376c-0.40472-1.1578-0.57862-2.4017-0.58195-3.6961 3.965e-4 -5.4086 4.0812-9.7928 9.4898-9.7923 5.408 3.97e-4 9.5995 4.3843 9.5999 9.7923-5.45e-4 1.2856-0.22559 2.5374-0.66349 3.6961l0.6112 0.30259c0.94038-1.6339 1.4583-3.508 1.461-5.452-4.38e-4 -6.0523-4.9067-10.959-10.959-10.959z" fill="#9c9c9c" stroke-width=".7933"/>
  </g>
 </g>
</svg>
