<svg width="32" height="32" version="1.1" viewBox="0 0 24 24" xmlns="http://www.w3.org/2000/svg">
 <defs>
  <linearGradient id="a" x1="11.981" x2="11.981" y1="2.9989" y2="20.983" gradientTransform="matrix(.79098 0 0 .79098 2.5043 2.5063)" gradientUnits="userSpaceOnUse">
   <stop stop-color="#ff9797ff" offset="0"/>
   <stop stop-color="#fa0000ff" offset="1"/>
  </linearGradient>
 </defs>
 <ellipse cx="11.981" cy="11.991" rx="7.0809" ry="7.1125" fill="url(#a)" stroke-width=".83149"/>
 <path d="m11.981 2.8809c-4.9474 0-9.0633 4.1398-9.0633 9.1096 0.00435 2.1134 0.36025 3.3064 0.96933 4.9113l2.065-1.1823c-0.62337-1.2696-1.0628-2.0282-1.0653-3.7334-3.849e-4 -3.9749 3.137-7.1064 7.0943-7.1067 3.9578-3.329e-4 7.0834 3.1313 7.083 7.1067-0.0031 1.7015-0.41139 2.7065-1.188 3.9298l2.1619 1.1331c0.53919-1.5458 0.95847-2.8999 0.95907-5.0116-1.29e-4 -4.9694-4.0689-9.1564-9.0158-9.1564z" fill="#fff" stroke-width=".87386"/>
 <path d="m12.839 7.6484c-6.3424 0.54703-8.2665 6.4706-7.6979 11.706-2.2247-3.3136-2.3869-6.8172-2.1891-8.466 0.5991-4.9951 5.1942-8.5386 10.141-7.9453 3.4654 0.41563 7.9133 3.4214 7.9133 9.0425-0.69705-1.298-2.7222-4.8064-8.167-4.3368z" fill="#666" fill-opacity=".12" stroke-width=".71916"/>
 <path d="m11.981 0.66612c-6.2583-3.568e-5 -11.331 5.0968-11.331 11.383-0.03916 3.1523 1.958 5.7836 4.4918 7.3044-1.2905-2.3985-2.2233-4.163-2.2233-7.3693 0-5.0281 4.0572-9.1046 9.063-9.1051 5.0065-4.211e-4 8.9676 4.5902 9.0253 9.1056 0.03831 2.9975-0.91707 4.9553-1.838 7.3688 1.9002-1.6269 4.1435-4.2581 4.1443-7.3044-1.63e-4 -6.2861-5.0737-11.383-11.331-11.383z" fill="#b1b1b1" stroke-width="1.1054"/>
</svg>
